<svg xmlns="http://www.w3.org/2000/svg" xmlns:svg="http://www.w3.org/2000/svg" xmlns:xlink="http://www.w3.org/1999/xlink" id="svg1334" width="16" height="16" version="1.0"><defs id="defs1336"><linearGradient id="linearGradient5459"><stop style="stop-color:#8a0909;stop-opacity:1" id="stop5461" offset="0"/><stop style="stop-color:#ff0606;stop-opacity:1" id="stop5463" offset="1"/></linearGradient><linearGradient id="linearGradient5349"><stop style="stop-color:#9ee757;stop-opacity:1" id="stop5351" offset="0"/><stop style="stop-color:#8ae234;stop-opacity:0" id="stop5353" offset="1"/></linearGradient><linearGradient id="linearGradient5299"><stop style="stop-color:#000;stop-opacity:1" id="stop5301" offset="0"/><stop style="stop-color:#000;stop-opacity:0" id="stop5303" offset="1"/></linearGradient><linearGradient id="linearGradient3717"><stop style="stop-color:#fdf09f;stop-opacity:1" id="stop3719" offset="0"/><stop style="stop-color:#edd400;stop-opacity:1" id="stop3721" offset="1"/></linearGradient><linearGradient id="linearGradient3707"><stop style="stop-color:#4e9a06;stop-opacity:1" id="stop3709" offset="0"/><stop style="stop-color:#b3ff69;stop-opacity:1" id="stop3711" offset="1"/></linearGradient><linearGradient id="linearGradient12062"><stop style="stop-color:#3a7203;stop-opacity:1" id="stop12064" offset="0"/><stop style="stop-color:#63cb00;stop-opacity:1" id="stop12066" offset="1"/></linearGradient><linearGradient id="linearGradient1331" x1="261.107" x2="376.863" y1="596.233" y2="651.203" gradientTransform="matrix(-0.137093,-0.08562126,0.04006067,-0.11529,58.51735,124.4617)" gradientUnits="userSpaceOnUse" xlink:href="#linearGradient12062"/><radialGradient id="radialGradient3723" cx="14.51" cy="48.47" r="4.672" fx="14.51" fy="48.47" gradientTransform="matrix(0.32187086,0.01620381,-0.04723724,0.9383159,2.2718552,12.892303)" gradientUnits="userSpaceOnUse" xlink:href="#linearGradient3717"/><linearGradient id="linearGradient5309" x1="24.438" x2="24.313" y1="13.75" y2="22.75" gradientUnits="userSpaceOnUse" xlink:href="#linearGradient5299"/><radialGradient id="radialGradient5355-5" cx="27.48" cy="31.535" r="16.171" fx="27.48" fy="31.535" gradientTransform="matrix(-0.51275856,1.2093067,-1.1941468,-0.5063306,103.35319,15.51265)" gradientUnits="userSpaceOnUse" xlink:href="#linearGradient5349-7"/><linearGradient id="linearGradient5349-7"><stop style="stop-color:#9ee757;stop-opacity:1" id="stop5351-1" offset="0"/><stop style="stop-color:#8ae234;stop-opacity:0" id="stop5353-7" offset="1"/></linearGradient><radialGradient id="radialGradient5410" cx="27.48" cy="31.535" r="16.171" fx="27.48" fy="31.535" gradientTransform="matrix(-0.36707727,0.2333714,-0.07465654,-0.11742963,22.612727,50.351342)" gradientUnits="userSpaceOnUse" xlink:href="#linearGradient5349-7"/><radialGradient id="radialGradient5437" cx="50.019" cy="37.293" r="15.728" fx="50.019" fy="37.293" gradientTransform="matrix(0.09949548,0.18629317,-0.36207679,0.19337806,22.050384,39.370607)" gradientUnits="userSpaceOnUse" xlink:href="#linearGradient5349-7"/><linearGradient id="linearGradient5465" x1="23.125" x2="25.867" y1="-.813" y2="10.483" gradientTransform="matrix(0.45532486,0,0,0.45532486,0.06998104,42.154783)" gradientUnits="userSpaceOnUse" xlink:href="#linearGradient5459"/><linearGradient id="linearGradient5465-5" x1="23.125" x2="30.375" y1="-.813" y2="9.688" gradientUnits="userSpaceOnUse" xlink:href="#linearGradient5459-7"/><linearGradient id="linearGradient5459-7"><stop style="stop-color:#8a0909;stop-opacity:1" id="stop5461-7" offset="0"/><stop style="stop-color:#ff0606;stop-opacity:1" id="stop5463-0" offset="1"/></linearGradient><linearGradient id="linearGradient5484" x1="21.711" x2="25.16" y1=".071" y2="9.953" gradientTransform="matrix(0.45532486,0,0,0.45532486,8.4579188,56.362341)" gradientUnits="userSpaceOnUse" xlink:href="#linearGradient5459-7"/><linearGradient id="linearGradient5465-6" x1="23.125" x2="30.375" y1="-.813" y2="9.688" gradientUnits="userSpaceOnUse" xlink:href="#linearGradient5459-5"/><linearGradient id="linearGradient5459-5"><stop style="stop-color:#8a0909;stop-opacity:1" id="stop5461-9" offset="0"/><stop style="stop-color:#ff0606;stop-opacity:1" id="stop5463-1" offset="1"/></linearGradient><linearGradient id="linearGradient5484-0" x1="21.799" x2="25.779" y1=".16" y2="9.953" gradientTransform="matrix(0.45532486,0,0,0.45532486,3.0367072,60.431808)" gradientUnits="userSpaceOnUse" xlink:href="#linearGradient5459-5"/><linearGradient id="linearGradient5465-8" x1="23.125" x2="30.375" y1="-.813" y2="9.688" gradientUnits="userSpaceOnUse" xlink:href="#linearGradient5459-6"/><linearGradient id="linearGradient5459-6"><stop style="stop-color:#8a0909;stop-opacity:1" id="stop5461-91" offset="0"/><stop style="stop-color:#ff0606;stop-opacity:1" id="stop5463-6" offset="1"/></linearGradient><linearGradient id="linearGradient5484-1" x1="23.125" x2="26.928" y1="-.813" y2="10.218" gradientTransform="matrix(0.45532486,0,0,0.45532486,-7.0515843,46.188676)" gradientUnits="userSpaceOnUse" xlink:href="#linearGradient5459-6"/></defs><metadata id="metadata1339"/><g id="layer1" transform="translate(0,-48)"><path style="font-size:medium;font-style:normal;font-variant:normal;font-weight:400;font-stretch:normal;text-indent:0;text-align:start;text-decoration:none;line-height:normal;letter-spacing:normal;word-spacing:normal;text-transform:none;direction:ltr;block-progression:tb;writing-mode:lr-tb;text-anchor:start;color:#000;fill:#c00;fill-opacity:1;stroke:#8c0000;stroke-width:1;stroke-miterlimit:4;stroke-opacity:1;stroke-dasharray:none;marker:none;visibility:visible;display:inline;overflow:visible;enable-background:accumulate;font-family:Andale Mono;-inkscape-font-specification:Andale Mono" id="path1336" d="m 9.9685741,54.844456 -0.7657962,0.796843 4.4499001,4.263625 0.765797,-0.796843 -4.4499009,-4.263625 z"/><rect style="fill:#c00;fill-opacity:1;stroke:#8c0000;stroke-width:1;stroke-linejoin:round;stroke-miterlimit:4;stroke-opacity:1;stroke-dasharray:none" id="rect1334" width="3.881" height="1.928" x="11.639" y="58.45"/><path style="font-size:medium;font-style:normal;font-variant:normal;font-weight:400;font-stretch:normal;text-indent:0;text-align:start;text-decoration:none;line-height:normal;letter-spacing:normal;word-spacing:normal;text-transform:none;direction:ltr;block-progression:tb;writing-mode:lr-tb;text-anchor:start;color:#000;fill:#c00;fill-opacity:1;stroke:#8c0000;stroke-width:1;stroke-miterlimit:4;stroke-opacity:1;stroke-dasharray:none;marker:none;visibility:visible;display:inline;overflow:visible;enable-background:accumulate;font-family:Andale Mono;-inkscape-font-specification:Andale Mono" id="path3123" d="m 7.4538638,50.011657 0.010349,4.480946 1.1073005,0 -0.010349,-4.480946 -1.1073005,0 z"/><rect style="fill:#c00;fill-opacity:1;stroke:#8c0000;stroke-width:1;stroke-linejoin:round;stroke-miterlimit:4;stroke-opacity:1;stroke-dasharray:none" id="rect2242" width="4.658" height="2.105" x="5.611" y="48.499"/><path style="font-size:medium;font-style:normal;font-variant:normal;font-weight:400;font-stretch:normal;text-indent:0;text-align:start;text-decoration:none;line-height:normal;letter-spacing:normal;word-spacing:normal;text-transform:none;direction:ltr;block-progression:tb;writing-mode:lr-tb;text-anchor:start;color:#000;fill:#c00;fill-opacity:1;stroke:#8c0000;stroke-width:1;stroke-miterlimit:4;stroke-opacity:1;stroke-dasharray:none;marker:none;visibility:visible;display:inline;overflow:visible;enable-background:accumulate;font-family:Andale Mono;-inkscape-font-specification:Andale Mono" id="path4881" d="M 9.3062639,57.079755 8.2300095,57.348819 9.4304466,62.326497 10.506702,62.067783 9.3062639,57.079755 z"/><path style="font-size:medium;font-style:normal;font-variant:normal;font-weight:400;font-stretch:normal;text-indent:0;text-align:start;text-decoration:none;line-height:normal;letter-spacing:normal;word-spacing:normal;text-transform:none;direction:ltr;block-progression:tb;writing-mode:lr-tb;text-anchor:start;color:#000;fill:#c00;fill-opacity:1;stroke:#8c0000;stroke-width:1;stroke-miterlimit:4;stroke-opacity:1;stroke-dasharray:none;marker:none;visibility:visible;display:inline;overflow:visible;enable-background:accumulate;font-family:Andale Mono;-inkscape-font-specification:Andale Mono" id="path4883" d="M 2.7723947,51.790518 2.006598,52.587361 6.201682,56.541628 6.9674787,55.744785 2.7723947,51.790518 z"/><rect style="fill:#c00;fill-opacity:1;stroke:#8c0000;stroke-width:1;stroke-linejoin:round;stroke-miterlimit:4;stroke-opacity:1;stroke-dasharray:none" id="rect3121" width="4.658" height="2.105" x=".499" y="51.401"/><path d="M 0.41521155,63.070881 C 1.2142065,62.587545 1.7958227,62.355159 2.2019074,62.336587 c 0.6737977,-0.03082 1.5353297,0.07557 2.1143357,0.009 0.7498934,-0.08623 1.4553485,-0.528601 1.4677575,-1.533015 0.00172,-0.139459 0.066314,-0.304747 -0.04022,-0.391749 C 5.4224915,60.158419 5.2255266,59.42047 4.8860688,59.003894" style="fill:#edd400;fill-opacity:1;fill-rule:evenodd;stroke:#d39f00;stroke-width:1;stroke-linecap:butt;stroke-linejoin:miter;stroke-miterlimit:4;stroke-opacity:1;stroke-dasharray:none" id="path1387-4"/><path d="M 0.44040271,63.090028 C 1.0292289,62.365259 1.3395448,61.821214 1.413898,61.421562 c 0.1233717,-0.663123 0.1367186,-1.531096 0.2824577,-2.095403 0.1887477,-0.730856 0.7241055,-1.368624 1.7206462,-1.242506 0.1383663,0.01751 0.3109788,-0.02368 0.3824709,0.09382 0.215608,0.35438 0.7073437,0.505765 1.0731684,0.899389" style="fill:#fcec86;fill-opacity:1;fill-rule:evenodd;stroke:#d39f00;stroke-width:1;stroke-linecap:butt;stroke-linejoin:miter;stroke-miterlimit:4;stroke-opacity:1;stroke-dasharray:none" id="path1387-4-7"/><path id="path1413" d="m 0.46662869,63.069841 c 0,0 1.97292621,-1.742993 2.17555221,-1.934103 0.176072,-0.166113 0.6328672,-0.204996 0.8475878,-0.405707 0.1598252,-0.149394 0.3083921,-0.392348 0.1788626,-0.568638 -0.1295307,-0.17629 -0.3918483,-0.03516 -0.6065712,0.165546 -0.2147228,0.200712 -0.2058107,0.474881 -0.4198792,0.808799" style="fill:#c4a000;fill-opacity:1;fill-rule:evenodd;stroke:#ac7f00;stroke-width:.69999999999999996;stroke-linecap:butt;stroke-linejoin:miter;stroke-miterlimit:4;stroke-opacity:1;stroke-dasharray:none"/><path d="m 15.533081,50.338841 c 0,0 -0.138901,-0.163841 -0.374664,-0.271645 -0.589041,-0.269343 -4.235851,1.907963 -4.527594,2.059224 -0.291739,0.151262 -3.564574,2.062658 -4.5903863,3.224617 -1.0258123,1.161959 -1.2104064,1.40346 -1.3497926,2.682298 0.3536627,0.470369 0.9504381,1.251825 1.5013777,1.698354 1.3167273,0.04124 1.5871704,-0.103998 2.9073166,-0.935937 1.3201486,-0.831938 3.7099766,-3.733397 3.9036046,-3.994666 0.193631,-0.261269 2.796393,-3.464153 2.712524,-4.094354 -0.03162,-0.237616 -0.232689,-0.421876 -0.232689,-0.421876" style="fill:#4e9a06;fill-opacity:1;fill-rule:evenodd;stroke:#506040;stroke-width:1;stroke-linecap:butt;stroke-linejoin:miter;stroke-miterlimit:4;stroke-opacity:1;stroke-dasharray:none" id="path1425"/><path d="M 5.6959342,60.459871 C 4.7358014,59.618194 4.3964211,58.852995 3.9605574,58.315571 3.8504853,58.270518 3.7599488,58.090167 3.7999143,58.000968 c 0.1362982,-0.304193 0.3388295,-0.431549 0.7018761,-0.325471 0.2150451,0.06283 0.2628662,0.276861 0.2576549,0.33031 0.2574207,0.387045 0.7931456,1.148855 1.4282364,1.758595 0.05664,0.0077 0.2608372,0.112042 0.2764647,0.330566 0.026387,0.36892 -0.1453874,0.533793 -0.4794222,0.596803 -0.097949,0.01847 -0.2583903,-0.107298 -0.28879,-0.2319 z" style="fill:url(#radialGradient3723);fill-opacity:1;fill-rule:evenodd;stroke:#d39f00;stroke-width:1;stroke-linecap:butt;stroke-linejoin:miter;stroke-miterlimit:4;stroke-opacity:1;stroke-dasharray:none" id="path1399"/><rect style="fill:#c00;fill-opacity:1;stroke:#8c0000;stroke-width:1;stroke-linejoin:round;stroke-miterlimit:4;stroke-opacity:1;stroke-dasharray:none" id="rect1328" width="3.881" height="1.928" x="7.874" y="61.584"/><path d="m 5.7547495,57.601195 c 0.3163807,0.411958 0.6561957,0.75241 1.1490561,1.143487 3.3609914,-1.193106 5.5588724,-5.012444 7.8961764,-7.812273 -3.253183,1.810532 -8.2732142,4.283714 -9.0452325,6.668786 z" style="fill:none;stroke:url(#radialGradient5410);stroke-width:1;stroke-linecap:butt;stroke-linejoin:round;stroke-miterlimit:4;stroke-opacity:1;stroke-dasharray:none" id="path1425-5-0"/></g></svg>