<svg xmlns="http://www.w3.org/2000/svg" xmlns:svg="http://www.w3.org/2000/svg" id="svg8" width="20" height="20" preserveAspectRatio="xMidYMid meet" version="1.1" viewBox="0 0 20 20" style="-ms-transform:rotate(360deg);-webkit-transform:rotate(360deg);transform:rotate(360deg)"><metadata id="metadata14"/><g id="g4" transform="matrix(1.0847478,0,0,1.0847426,-0.84747774,-0.84742374)" style="fill:#000"><path id="path2" d="m 12.316,3.051 a 1,1 0 0 1 0.633,1.265 l -4,12 A 1.0002285,1.0002285 0 1 1 7.051,15.684 l 4,-12 A 1,1 0 0 1 12.316,3.051 Z M 5.707,6.293 a 1,1 0 0 1 0,1.414 L 3.414,10 5.707,12.293 a 1,1 0 1 1 -1.414,1.414 l -3,-3 a 1,1 0 0 1 0,-1.414 l 3,-3 a 1,1 0 0 1 1.414,0 z m 8.586,0 a 1,1 0 0 1 1.414,0 l 3,3 a 1,1 0 0 1 0,1.414 l -3,3 A 1,1 0 1 1 14.293,12.293 L 16.586,10 14.293,7.707 a 1,1 0 0 1 0,-1.414 z" style="clip-rule:evenodd;fill-rule:evenodd;fill:#000"/></g></svg>