<svg xmlns="http://www.w3.org/2000/svg" xmlns:svg="http://www.w3.org/2000/svg" id="svg8" width="100" height="100" preserveAspectRatio="xMidYMid meet" version="1.1" viewBox="0 0 100 100" style="-ms-transform:rotate(360deg);-webkit-transform:rotate(360deg);transform:rotate(360deg)"><metadata id="metadata14"/><path id="path2" d="M 99.500834,25.565133 A 1.5953049,1.5953049 0 0 0 98.368006,25.09621 v -0.01773 h -8.39227 c 6.149175,-4.060776 8.160226,-6.96133 8.160226,-10.480669 0,-5.182324 -4.370169,-8.896645 -11.062392,-8.896645 -3.445214,0 -7.549499,1.119936 -10.508064,3.997931 -0.06929,0.04995 -0.148251,0.07735 -0.209485,0.140193 -0.04351,0.04351 -0.06123,0.10152 -0.09991,0.149862 -0.029,0.02901 -0.06123,0.05318 -0.08863,0.08379 l 0.01934,0.02256 a 1.5550194,1.5550194 0 0 0 0.0081,1.764504 l -0.02578,0.01611 2.20281,3.214781 h 0.0016 a 1.5824135,1.5824135 0 0 0 2.038445,0.149862 l 0.01128,0.0145 c 0.05801,-0.04834 0.116022,-0.09024 0.174033,-0.136971 0.01128,-0.01128 0.0274,-0.0145 0.04029,-0.02578 l 0.0081,-0.01128 c 1.90792,-1.555019 3.941531,-2.494476 6.587481,-2.494476 1.662985,0 2.977903,0.773481 2.977903,2.011051 0,1.933703 -1.121548,2.900554 -12.918747,11.215477 v 0.03545 c -0.107965,0.06607 -0.223987,0.117633 -0.31745,0.211096 a 1.5630765,1.5630765 0 0 0 -0.430249,0.9314 h -0.03867 v 4.204192 c 0,0.388352 0.314227,0.70419 0.704191,0.70419 0.029,0 0.05479,-0.01289 0.08379,-0.01611 v 0.0064 h 21.080585 a 1.5985277,1.5985277 0 0 0 1.60175,-1.601751 V 26.70274 a 1.6323675,1.6323675 0 0 0 -0.475368,-1.137662 z" style="fill:#000;stroke-width:1.61141908;fill-opacity:1"/><path id="path4" d="m 66.95178,28.866931 -5.4611,-5.462711 a 4.1961353,4.1961353 0 0 0 -5.934856,0 L 55.530041,23.378437 34.526805,44.381674 13.525181,23.378437 a 4.1961353,4.1961353 0 0 0 -5.9348566,0 l -5.4610993,5.4611 a 4.1961353,4.1961353 0 0 0 0,5.934856 l -0.025783,0.02578 21.0016249,21.001625 -21.0032363,21.004847 0.025783,0.02578 a 4.1961353,4.1961353 0 0 0 0,5.934857 l 5.4610993,5.461099 a 4.1961353,4.1961353 0 0 0 5.934856,0 l 21.001625,-21.001625 21.001624,21.001625 0.02578,-0.02578 a 4.1961353,4.1961353 0 0 0 5.934857,0 l 5.461099,-5.461099 a 4.1961353,4.1961353 0 0 0 0,-5.934857 L 45.950155,55.803412 66.95178,34.801787 a 4.1961353,4.1961353 0 0 0 0,-5.934856 z" style="fill:#000;stroke-width:1.61141908;fill-opacity:1"/></svg>