<svg xmlns="http://www.w3.org/2000/svg" xmlns:svg="http://www.w3.org/2000/svg" id="svg8" width="36" height="36" preserveAspectRatio="xMidYMid meet" version="1.1" viewBox="0 0 36 36" style="-ms-transform:rotate(360deg);-webkit-transform:rotate(360deg);transform:rotate(360deg)"><metadata id="metadata14"/><path id="path2" fill="#626262" d="M27 33H5a2 2 0 0 1-2-2V9a2 2 0 0 1 2-2h10v2H5v22h22V21h2v10a2 2 0 0 1-2 2z" class="clr-i-outline clr-i-outline-path-1" style="fill:#000;fill-opacity:1;stroke:#000;stroke-opacity:1"/><path id="path4" fill="#626262" d="M18 3a1 1 0 0 0 0 2h11.59L15.74 18.85a1 1 0 1 0 1.41 1.41L31 6.41V18a1 1 0 0 0 2 0V3z" class="clr-i-outline clr-i-outline-path-2" style="fill:#000;fill-opacity:1;stroke:#000;stroke-opacity:1"/></svg>